<svg width="21" height="19" viewBox="0 0 21 19" fill="none" xmlns="http://www.w3.org/2000/svg">
<path d="M20.2706 7.15765C20.2007 6.94804 20.0146 6.79529 19.7906 6.76364L13.4975 5.87345L10.6831 0.322507C10.5829 0.124902 10.3761 -0.000183105 10.1498 -0.000183105C9.9234 -0.000183105 9.71667 0.124902 9.61648 0.322507L6.80193 5.87345L0.508953 6.76364C0.28498 6.79529 0.0988316 6.94805 0.0288921 7.15761C-0.0410871 7.36722 0.0172752 7.59728 0.179397 7.75108L4.73292 12.0719L3.65814 18.1731C3.61984 18.3903 3.71158 18.6097 3.89472 18.7393C3.99832 18.8125 4.12103 18.8498 4.24434 18.8498C4.33902 18.8498 4.43401 18.8279 4.521 18.7833L10.1497 15.9027L15.7783 18.7833C15.9787 18.8858 16.2214 18.8688 16.4046 18.7392C16.5877 18.6097 16.6795 18.3902 16.6412 18.173L15.5661 12.0719L20.1201 7.75104C20.2822 7.59728 20.3406 7.36722 20.2706 7.15765Z" fill="#FFCA56"/>
</svg>
